{"title":"The White Princess S01E01 1080p WEBRip HEVC 2CH x265","magnet":"magnet:?xt=urn:btih:8c40d3716b871802c5f71bc61549c1e0da19d40b&dn=The+White+Princess+S01E01+1080p+WEBRip+HEVC+2CH+x265&tr=udp%3A%2F%2Ftracker.leechers-paradise.org%3A6969&tr=udp%3A%2F%2Fzer0day.ch%3A1337&tr=udp%3A%2F%2Fopen.demonii.com%3A1337&tr=udp%3A%2F%2Ftracker.coppersurfer.tk%3A6969&tr=udp%3A%2F%2Fexodus.desync.com%3A6969","uploader":"Browse nayhtut","categoryP":"video","categoryS":"hd___tv_shows","size":"971766355","seeders":"5","leechers":"22","description":"Source: The White Princess S01E01 1080p WEBRip X264-DEFLATE (4.53 GiB)\r\n\r\n\r\nComplete name: The.White.Princess.S01E01.1080p.WEBRip.HEVC.2CH.x265.mkv\r\nFormat                                   : Matroska\r\nFormat version                           : Version 4 / Version 2\r\nFile size                                : 927 MiB\r\nDuration                                 : 58mn 6s\r\nOverall bit rate                         : 2 230 Kbps\r\nWriting application                      : Lavf57.25.100\r\n\r\nVideo\r\n\r\nID                                       : 1\r\nFormat                                   : V_MPEGH/ISO/HEVC\r\nDuration                                 : 58mn 6s\r\nBit rate                                 : 1 866 Kbps\r\nWidth                                    : 1 920 pixels\r\nHeight                                   : 1 080 pixels\r\nDisplay aspect ratio                     : 16:9\r\nFrame rate                               : 25.000 fps\r\nBits/(Pixel*Frame)                       : 0.036\r\nStream size                              : 775 MiB (84%)\r\nDefault                                  : Yes\r\nForced                                   : No\r\nDURATION                                 : 00:58:05.971000000\r\n\r\nAudio\r\n\r\nID                                       : 2\r\nFormat                                   : E-AC-3\r\nFormat/Info                              : Audio Coding 3\r\nFormat settings, Endianness              : Big\r\nCodec ID                                 : A_EAC3\r\nDuration                                 : 58mn 6s\r\nBit rate mode                            : Constant\r\nBit rate                                 : 320 Kbps\r\nChannel(s)                               : 2 channels\r\nChannel positions                        : Front: L R\r\nSampling rate                            : 48.0 KHz\r\nBit depth                                : 32 bits\r\nCompression mode                         : Lossy\r\nStream size                              : 133 MiB (14%)\r\nWriting library                          : Lavc57.24.102 eac3\r\nDefault                                  : Yes\r\nForced                                   : No\r\nDURATION                                 : 00:58:06.015000000\r\n\r\nText\r\n\r\nID                                       : 3\r\nCodec ID                                 : S_TEXT/ASS\r\nDefault                                  : No","last_updated":"2017-04-18T10:43:47.879Z","parsed":{"xt":"urn:btih:8c40d3716b871802c5f71bc61549c1e0da19d40b","dn":"The White Princess S01E01 1080p WEBRip HEVC 2CH x265","tr":["udp://exodus.desync.com:6969","udp://open.demonii.com:1337","udp://tracker.coppersurfer.tk:6969","udp://tracker.leechers-paradise.org:6969","udp://zer0day.ch:1337"],"infoHash":"8c40d3716b871802c5f71bc61549c1e0da19d40b","infoHashBuffer":{"type":"Buffer","data":[140,64,211,113,107,135,24,2,197,247,27,198,21,73,193,224,218,25,212,11]},"name":"The White Princess S01E01 1080p WEBRip HEVC 2CH x265","announce":["udp://exodus.desync.com:6969","udp://open.demonii.com:1337","udp://tracker.coppersurfer.tk:6969","udp://tracker.leechers-paradise.org:6969","udp://zer0day.ch:1337"],"urlList":[]}}